<svg xmlns:xlink="http://www.w3.org/1999/xlink" xmlns="http://www.w3.org/2000/svg" data-v-abcd18e4="" viewBox="0 0 22 22" class="w-18 h-18 fill-current text-gold " width="22"  height="22" ><path d="M21.72 4a.86.86 0 0 0 0-.17c0-1.7-4.44-3.09-9.93-3.09S1.9 2.14 1.9 3.84a1.46 1.46 0 0 0 0 .22.86.86 0 0 1-.04-.06v2.55c0 .55.61 1.15 1.68 1.7 0 0 2.63 1.58 8.26 1.64a21.28 21.28 0 0 0 7-1.09c1.82-.64 2.91-1.46 2.91-2.19V4.05a.28.28 0 0 0 0-.09.08.08 0 0 1 .01.04ZM4.37 3.31c.73-1 3.78-1.71 7.43-1.71s6.78.75 7.46 1.74a.72.72 0 0 1 .14.41s0 .38 0 .41a2.55 2.55 0 0 0-.4-.32c-1.07-.76-3.9-1.2-7.18-1.2s-6 .4-7.1 1.14a1.73 1.73 0 0 0-.49.38v-.41a.77.77 0 0 1 .14-.44Zm15.52 6.46v2.55c0 .73-1.08 1.55-2.91 2.2a21 21 0 0 1-7 1.08c-5.67-.06-8.3-1.6-8.3-1.6C.61 13.42 0 12.82 0 12.27v-2.5a.28.28 0 0 1 0-.09.76.76 0 0 1 0-.16C0 9 .57 8.38 1.55 7.9V8c0 .58.67 1.21 1.85 1.78 0 0 2.58 1.38 8.1 1.55a19.56 19.56 0 0 0 7-1.08 10.48 10.48 0 0 0 1.32-.56 1 1 0 0 1-.08.28 1.59 1.59 0 0 0 .12-.27ZM22 15.41v2.5c0 .55-.61 1.15-1.68 1.7 0 0-2.63 1.57-8.27 1.63a21 21 0 0 1-7-1.08C3.19 19.52 2.11 18.7 2.11 18v-2.68a1.89 1.89 0 0 0 .09.21 10.35 10.35 0 0 0 1.23.52 19.78 19.78 0 0 0 7 1.08c5.52-.18 8.1-1.55 8.1-1.55 1.17-.57 1.85-1.2 1.85-1.78v-.08c1 .48 1.54 1 1.54 1.65v-.06a.28.28 0 0 1 .08.1Z" fill="#E9B10B"></path></svg>