<svg xmlns="http://www.w3.org/2000/svg" xmlns:xlink="http://www.w3.org/1999/xlink" version="1.1" width="1000" height="1000" viewBox="0 0 1000 1000" xml:space="preserve">
<desc>Created with Fabric.js 3.5.0</desc>
<defs>
</defs>
<rect x="0" y="0" width="100%" height="100%" fill="rgba(255,255,255,0)"/>
<g transform="matrix(1.776 0 0 1.776 499.9958 499.9951)" id="220136">
<path style="stroke: none; stroke-width: 1; stroke-dasharray: none; stroke-linecap: butt; stroke-dashoffset: 0; stroke-linejoin: miter; stroke-miterlimit: 4; is-custom-font: none; font-file-url: none; fill: rgb(250,176,7); fill-rule: nonzero; opacity: 1;" vector-effect="non-scaling-stroke" transform=" translate(-224, -256.0026)" d="M 236.9 0.2 c -5.5 -0.7 -11 1.4 -14.5 5.7 s -4.6 10.1 -2.8 15.3 c 2.8 8.2 4.3 16.9 4.3 26.1 c 0 21.7 -8.5 37.2 -21.9 47.6 c -13.8 10.8 -34 17 -57.8 17 H 128 c -35.3 0 -64 28.7 -64 64 c 0 12.2 3.4 23.5 9.3 33.2 C 31.7 216.2 0 252.4 0 296 c 0 41 28 75.4 65.8 85.2 c -5.3 -18.5 1 -38.5 16.2 -50.7 l 160 -128 c 17.6 -14.1 42.6 -14 60.2 0.2 s 22.8 38.6 12.8 58.8 L 285.7 320 H 304 c 20.4 0 38.5 12.9 45.3 32.1 c 3.7 10.6 3.5 21.8 0 31.9 H 360 c 48.6 0 88 -39.4 88 -88 c 0 -43.6 -31.7 -79.8 -73.3 -86.8 c 5.9 -9.7 9.3 -21.1 9.3 -33.2 c 0 -35.3 -28.7 -64 -64 -64 h -1.4 c 0.9 -5.4 1.4 -10.9 1.4 -16.6 c 0 -48.7 -36.1 -88.9 -83.1 -95.2 z m 45.1 227.4 c -5.8 -4.7 -14.2 -4.7 -20.1 -0.1 l -160 128 c -5.3 4.2 -7.4 11.4 -5.1 17.8 s 8.3 10.7 15.1 10.7 h 70.1 L 129.7 488.8 c -3.4 6.7 -1.6 14.9 4.3 19.6 s 14.2 4.7 20.1 0.1 l 160 -128 c 5.3 -4.2 7.4 -11.4 5.1 -17.8 s -8.3 -10.7 -15.1 -10.7 H 233.9 l 52.4 -104.8 c 3.4 -6.7 1.6 -14.9 -4.3 -19.6 z" stroke-linecap="round"/>
</g>
</svg>